<?xml version="1.0" encoding="utf-8"?>
<!-- Generator: Adobe Illustrator 26.0.3, SVG Export Plug-In . SVG Version: 6.00 Build 0)  -->
<svg version="1.1" id="Layer_1" xmlns="http://www.w3.org/2000/svg" xmlns:xlink="http://www.w3.org/1999/xlink" x="0px" y="0px"
	 viewBox="0 0 128 128" style="enable-background:new 0 0 128 128;" xml:space="preserve">
<style type="text/css">
	.st0{fill:#ACC435;}
	.st1{fill:#FFFFFF;}
</style>
<g>
	<circle class="st0" cx="64" cy="64" r="64"/>
	<path class="st1" d="M103.6,31.5c0-4.4-3.6-8-8-8h-32c-22.1,0-40,17.9-40,40s17.9,40,40,40c9.1,0,17.3-2.9,24-8c0,4.4,3.6,8,8,8
		c4.4,0,8-3.6,8-8v-32c0-9.1-2.9-17.3-8-24C100.1,39.5,103.6,35.9,103.6,31.5z M63.5,87.4c-13.2,0-24-10.8-24-24s10.8-24,24-24
		s24,10.8,24,24S76.9,87.4,63.5,87.4z"/>
</g>
</svg>
