<?xml version="1.0" encoding="utf-8"?>
<!-- Generator: Adobe Illustrator 26.0.3, SVG Export Plug-In . SVG Version: 6.00 Build 0)  -->
<svg version="1.1" id="Layer_1" xmlns="http://www.w3.org/2000/svg" xmlns:xlink="http://www.w3.org/1999/xlink" x="0px" y="0px"
	 viewBox="0 0 128 128" style="enable-background:new 0 0 128 128;" xml:space="preserve">
<g>
	<path d="M80,32c-2.9,0-5.3,2.4-5.3,5.3v53.3c0,2.9,2.4,5.3,5.3,5.3s5.3-2.4,5.3-5.3V37.3C85.3,34.4,82.9,32,80,32z"/>
	<path d="M69.3,48c0-2.9-2.4-5.3-5.3-5.3H42.7C27.9,42.7,16,54.6,16,69.3S27.9,96,42.7,96c6,0,11.6-2,16-5.3c0,2.9,2.4,5.3,5.3,5.3
		s5.3-2.4,5.3-5.3V69.3c0-6-2-11.6-5.3-16C66.9,53.3,69.3,50.9,69.3,48z M42.7,85.3c-8.8,0-16-7.2-16-16s7.2-16,16-16s16,7.2,16,16
		S51.6,85.3,42.7,85.3z"/>
	<path d="M107.7,42.7h-6.4v-5.3c0-2.9-2.4-5.3-5.3-5.3c-2.9,0-5.3,2.4-5.3,5.3v53.3c0,2.9,2.4,5.3,5.3,5.3c2.9,0,5.3-2.4,5.3-5.3
		V53.3h6.4c2.9,0,5.3-2.4,5.3-5.3S110.7,42.7,107.7,42.7z"/>
</g>
</svg>
