<?xml version="1.0" encoding="utf-8"?>
<!-- Generator: Adobe Illustrator 26.0.3, SVG Export Plug-In . SVG Version: 6.00 Build 0)  -->
<svg version="1.1" id="Layer_1" xmlns="http://www.w3.org/2000/svg" xmlns:xlink="http://www.w3.org/1999/xlink" x="0px" y="0px"
	 viewBox="0 0 906 170" style="enable-background:new 0 0 906 170;" xml:space="preserve">
<style type="text/css">
	.st0{fill:#FFFFFF;}
	.st1{fill:#ACC435;}
</style>
<g>
	<path class="st0" d="M536.4,20.6c-24.7,1.6-44.8,21.4-46.6,46c-2.2,29.3,21,53.9,49.9,53.9c12,0,23.6-4.3,32.7-12.2
		c3.9-3.4,5-9.2,2.1-13.4c-3.5-5.1-10.5-5.8-14.9-1.9c-5.5,4.8-12.5,7.5-19.8,7.5c-13,0-24.2-8.4-28.3-20h68.3c5.5,0,10-4.5,10-10
		C589.7,41.9,565.5,18.8,536.4,20.6z M511.4,60.5c4.1-11.6,15.2-20,28.3-20c13,0,24.2,8.4,28.3,20H511.4z"/>
	<path class="st0" d="M779.5,92.5c-5.5,4.8-12.5,7.5-19.8,7.5c-16.5,0-30-13.5-30-30s13.5-30,30-30c7.3,0,14.4,2.7,19.8,7.5
		c4.1,3.7,10.5,3.3,14.1-0.9c3.7-4.1,3.3-10.5-0.9-14.1c-9.1-8.1-20.9-12.5-33.1-12.5c-27.6,0-50,22.4-50,50s22.4,50,50,50
		c12.2,0,23.9-4.4,33.1-12.5c4.1-3.7,4.5-10,0.9-14.1C789.9,89.2,783.6,88.8,779.5,92.5z"/>
	<path class="st1" d="M89.4,20.5c-8.2,0-24.7,0-38.9,0c-26.7,0-49.3,20.7-50.7,47.3c-1.5,28.8,21.4,52.7,49.9,52.7
		c11.3,0,21.6-3.7,30-10c0,6,5.3,10.8,11.5,9.9c5-0.7,8.5-5.2,8.5-10.2V70.5c0-11.3-3.7-21.6-10-30c6,0,10.8-5.3,9.9-11.5
		C98.9,24.1,94.5,20.5,89.4,20.5z M49.6,100c-16.6,0-30-13.4-30-30s13.4-30,30-30s30,13.4,30,30S66.2,100,49.6,100z"/>
	<path class="st0" d="M423.4,20.5h-38.9c-26.7,0-49.3,20.7-50.7,47.3c-1.5,28.8,21.4,52.7,49.9,52.7c11.3,0,21.6-3.7,30-10
		c0,6,5.3,10.8,11.5,9.9c5-0.7,8.5-5.2,8.5-10.2V70.5c0-11.3-3.7-21.6-10-30c6,0,10.8-5.3,9.9-11.5
		C432.9,24.1,428.5,20.5,423.4,20.5z M383.6,100c-16.6,0-30-13.4-30-30s13.4-30,30-30s30,13.4,30,30S400.2,100,383.6,100z"/>
	<path class="st1" d="M221.7,20.5h10v-10c0-4.3,2.7-8.2,6.8-9.5c6.9-2.2,13.2,2.9,13.2,9.5v100c0,4.3-2.7,8.2-6.8,9.5
		c-6.9,2.2-13.2-2.9-13.2-9.5v-70h-10c-6.6,0-11.7-6.3-9.5-13.2C213.5,23.2,217.5,20.5,221.7,20.5z"/>
	<path class="st0" d="M479.8,20.5h-10v-10c0-4.3-2.7-8.2-6.8-9.5c-6.9-2.2-13.2,2.9-13.2,9.5v100c0,4.3,2.7,8.2,6.8,9.5
		c6.9,2.2,13.2-2.9,13.2-9.5v-70h10c6.6,0,11.7-6.3,9.5-13.2C488,23.2,484,20.5,479.8,20.5z"/>
	<path class="st0" d="M313.8,120.5L313.8,120.5c-5.5,0-10-4.5-10-10v-100c0-5.5,4.5-10,10-10l0,0c5.5,0,10,4.5,10,10v100
		C323.8,116,319.3,120.5,313.8,120.5z"/>
	<path class="st1" d="M168.4,20.1c-28.8-1.5-52.7,21.4-52.7,49.9v39.7c0,5,3.6,9.5,8.5,10.2c6.2,0.9,11.5-3.9,11.5-9.9V70.6
		c0-15.8,12-29.4,27.8-30.5c17.6-1.3,32.2,12.6,32.2,29.9v39.7c0,5,3.6,9.5,8.5,10.2c6.2,0.9,11.5-3.9,11.5-9.9V70.8
		C215.8,44.1,195.1,21.5,168.4,20.1z"/>
	<path class="st0" d="M652.4,20.1c-28.8-1.5-52.7,21.4-52.7,49.9v39.7c0,5,3.6,9.5,8.5,10.2c6.2,0.9,11.5-3.9,11.5-9.9V70.6
		c0-15.8,12-29.4,27.8-30.5c17.6-1.3,32.2,12.6,32.2,29.9v39.7c0,5,3.6,9.5,8.5,10.2c6.2,0.9,11.5-3.9,11.5-9.9V70.8
		C699.8,44.1,679.1,21.5,652.4,20.1z"/>
	<g>
		<path class="st1" d="M267.8,40.3c0,14.4,0,55,0,69.4c0,5,3.6,9.5,8.5,10.2c6.2,0.9,11.5-3.9,11.5-9.9V40c0-6-5.3-10.8-11.5-9.9
			C271.3,30.8,267.8,35.3,267.8,40.3z"/>
		<circle class="st1" cx="277.6" cy="10" r="10"/>
	</g>
	<path class="st0" d="M905.8,30.3c0-5-3.6-9.5-8.5-10.2c-6.2-0.9-11.5,3.9-11.5,9.9v39.4c0,15.8-12,29.4-27.8,30.5
		c-17.6,1.3-32.2-12.6-32.2-29.9V30.3c0-5-3.6-9.5-8.5-10.2c-6.2-0.9-11.5,3.9-11.5,9.9v39.2c0,26.9,21,49.6,47.9,50.7
		c12,0.5,23.2-3.3,32.1-10v9.5c0,13.6-8.9,25.9-22,29.5c-10,2.7-20.4,0.2-27.8-6.4c-4.5-3.9-11.5-3.2-14.9,1.9
		c-2.9,4.3-1.8,10.1,2.1,13.4c9.1,7.8,20.7,12.2,32.7,12.2c27.6,0,50-22.4,50-50V71c0-0.1,0-0.2,0-0.3c0-0.2,0-0.4,0-0.7L905.8,30.3
		L905.8,30.3z"/>
</g>
</svg>
